<?xml version="1.0" encoding="UTF-8" standalone="no"?>
<!-- Uploaded to: SVG Repo, www.svgrepo.com, Generator: SVG Repo Mixer Tools -->

<svg
   width="800px"
   height="800px"
   viewBox="-11.04 0 61.385 61.385"
   version="1.1"
   id="svg1"
   sodipodi:docname="pants-with-padding.svg"
   inkscape:version="1.3.2 (091e20e, 2023-11-25)"
   xmlns:inkscape="http://www.inkscape.org/namespaces/inkscape"
   xmlns:sodipodi="http://sodipodi.sourceforge.net/DTD/sodipodi-0.dtd"
   xmlns="http://www.w3.org/2000/svg"
   xmlns:svg="http://www.w3.org/2000/svg">
  <defs
     id="defs1" />
  <sodipodi:namedview
     id="namedview1"
     pagecolor="#505050"
     bordercolor="#eeeeee"
     borderopacity="1"
     inkscape:showpageshadow="0"
     inkscape:pageopacity="0"
     inkscape:pagecheckerboard="0"
     inkscape:deskcolor="#505050"
     inkscape:zoom="0.295"
     inkscape:cx="400"
     inkscape:cy="400"
     inkscape:window-width="1512"
     inkscape:window-height="695"
     inkscape:window-x="0"
     inkscape:window-y="38"
     inkscape:window-maximized="0"
     inkscape:current-layer="svg1" />
  <g
     id="Pants"
     transform="matrix(0.72204212,0,0,0.72204212,-84.863658,-256.87052)">
    <g
       id="Group_95"
       data-name="Group 95">
      <path
         id="Path_72"
         data-name="Path 72"
         d="m 156.556,428.956 c -7.447,0 -7.762,-0.316 -8.066,-0.622 -0.288,-0.292 -0.61,-0.619 -3.992,-32.189 -3.046,31.409 -3.128,31.669 -3.165,31.786 -0.254,0.8 -0.307,0.963 -8.478,0.963 -7.144,0 -7.24,-0.187 -7.56,-0.807 -0.389,-0.752 -0.078,-27.814 -0.074,-28.088 0.225,-18.553 0.674,-28.935 1.332,-30.86 a 1.385,1.385 0 0 1 0.684,-0.848 c 1.12,-0.518 4.633,-0.72 12.529,-0.72 l 4.96,0.009 5.063,-0.009 c 9.716,0 11.963,0.284 12.709,0.81 0.609,0.43 1.09,0.769 1.587,30.129 0.2,11.864 0.373,28.834 0.3,29.286 -0.16,0.915 -0.202,1.16 -7.829,1.16 z m -6.522,-2.179 c 1.012,0.1 3.41,0.179 6.522,0.179 2.808,0 4.878,-0.068 5.866,-0.149 0.065,-6.6 -0.519,-52.034 -1.315,-56.861 -1.106,-0.24 -4.922,-0.375 -11.318,-0.375 l -5.063,0.009 -4.96,-0.009 c -6.332,0 -10.156,0.148 -11.388,0.44 -1.087,4.536 -1.486,49.888 -1.246,56.762 0.891,0.061 2.733,0.121 5.723,0.121 3.072,0 5.515,-0.064 6.62,-0.138 0.468,-4.4 2.747,-27.837 3.981,-40.6 a 1,1 0 0 1 0.991,-0.9 v 0 a 1,1 0 0 1 0.994,0.894 c 1.568,14.79 3.975,36.821 4.593,40.627 z"
         fill="#231f20" />
    </g>
    <g
       id="Group_96"
       data-name="Group 96">
      <path
         id="Path_73"
         data-name="Path 73"
         d="m 127.8,379.557 a 3.85,3.85 0 0 1 -1.593,-0.335 0.50016622,0.50016622 0 0 1 0.411,-0.912 c 3.84,1.733 9.707,-5.986 9.766,-6.064 a 0.5,0.5 0 0 1 0.8,0.6 c -0.23,0.307 -5.099,6.711 -9.384,6.711 z"
         fill="#231f20" />
    </g>
    <g
       id="Group_97"
       data-name="Group 97">
      <path
         id="Path_74"
         data-name="Path 74"
         d="m 161.33,379.557 c -4.285,0 -9.152,-6.4 -9.383,-6.71 a 0.5,0.5 0 0 1 0.8,-0.6 c 0.059,0.078 5.921,7.8 9.765,6.064 a 0.50016622,0.50016622 0 0 1 0.411,0.912 3.847,3.847 0 0 1 -1.593,0.334 z"
         fill="#231f20" />
    </g>
    <g
       id="Group_98"
       data-name="Group 98">
      <rect
         id="Rectangle_14"
         data-name="Rectangle 14"
         width="1"
         height="17.747999"
         transform="rotate(-0.738,28680.796,-10965.756)"
         fill="#231f20"
         x="0"
         y="0" />
    </g>
    <g
       id="Group_99"
       data-name="Group 99">
      <path
         id="Path_75"
         data-name="Path 75"
         d="m 146.781,370.627 a 0.807,0.807 0 0 1 -0.808,0.806 v 0 a 0.8,0.8 0 0 1 -0.8,-0.806 v 0 a 0.8,0.8 0 0 1 0.8,-0.8 v 0 a 0.806,0.806 0 0 1 0.808,0.8 z"
         fill="#231f20" />
    </g>
    <g
       id="Group_100"
       data-name="Group 100">
      <rect
         id="Rectangle_15"
         data-name="Rectangle 15"
         width="34.946999"
         height="1"
         transform="translate(127.091,371.744)"
         fill="#231f20"
         x="0"
         y="0" />
    </g>
    <g
       id="Group_101"
       data-name="Group 101">
      <path
         id="Path_76"
         data-name="Path 76"
         d="m 133.414,372.744 a 0.5,0.5 0 0 1 -0.5,-0.5 v -3.121 a 0.5,0.5 0 0 1 1,0 v 3.121 a 0.5,0.5 0 0 1 -0.5,0.5 z"
         fill="#231f20" />
    </g>
    <g
       id="Group_102"
       data-name="Group 102">
      <path
         id="Path_77"
         data-name="Path 77"
         d="m 155.039,372.744 a 0.5,0.5 0 0 1 -0.5,-0.5 v -3.121 a 0.5,0.5 0 0 1 1,0 v 3.121 a 0.5,0.5 0 0 1 -0.5,0.5 z"
         fill="#231f20" />
    </g>
  </g>
</svg>
